<svg width="651" height="195" viewBox="0 0 651 195" fill="none" xmlns="http://www.w3.org/2000/svg">
<path d="M10.1268 181H640.873" stroke="#CCCCCC" stroke-dasharray="4 2"/>
<path d="M10.1268 121H640.873" stroke="#CCCCCC" stroke-dasharray="4 2"/>
<path d="M10.1268 61H640.873" stroke="#CCCCCC" stroke-dasharray="4 2"/>
<path d="M10.1268 1H640.873" stroke="#CCCCCC" stroke-dasharray="4 2"/>
<path d="M4.76773 188.889V183.351H5.79898V188.889C5.79898 189.404 5.69335 189.84 5.48208 190.194C5.27082 190.549 4.97899 190.819 4.6066 191.005C4.23778 191.188 3.81346 191.279 3.33365 191.279C2.85383 191.279 2.42772 191.197 2.05533 191.032C1.68293 190.867 1.3911 190.617 1.17984 190.28C0.968574 189.943 0.862943 189.519 0.862943 189.007H1.89956C1.89956 189.336 1.96044 189.607 2.08218 189.818C2.20393 190.029 2.37222 190.185 2.58706 190.285C2.80549 190.386 3.05435 190.436 3.33365 190.436C3.60578 190.436 3.84927 190.378 4.06411 190.264C4.28254 190.146 4.45441 189.972 4.57974 189.743C4.70507 189.51 4.76773 189.225 4.76773 188.889ZM10.8317 190.178V187.186C10.8317 186.957 10.7851 186.758 10.692 186.59C10.6025 186.418 10.4665 186.286 10.2838 186.193C10.1012 186.099 9.87564 186.053 9.60708 186.053C9.35643 186.053 9.13622 186.096 8.94644 186.182C8.76024 186.268 8.61343 186.381 8.50601 186.52C8.40217 186.66 8.35025 186.81 8.35025 186.971H7.3566C7.3566 186.764 7.41031 186.558 7.51773 186.354C7.62515 186.15 7.77912 185.965 7.97964 185.8C8.18374 185.632 8.42723 185.5 8.71011 185.403C8.99657 185.303 9.31525 185.253 9.66617 185.253C10.0887 185.253 10.4611 185.324 10.7834 185.467C11.1092 185.611 11.3634 185.827 11.546 186.117C11.7322 186.404 11.8253 186.764 11.8253 187.197V189.904C11.8253 190.097 11.8415 190.303 11.8737 190.522C11.9095 190.74 11.9614 190.928 12.0294 191.086V191.172H10.9928C10.9427 191.057 10.9033 190.905 10.8747 190.715C10.846 190.522 10.8317 190.343 10.8317 190.178ZM11.0036 187.648L11.0143 188.346H10.0099C9.72704 188.346 9.4746 188.37 9.25259 188.416C9.03059 188.459 8.84439 188.525 8.694 188.615C8.54361 188.704 8.42902 188.817 8.35025 188.953C8.27147 189.086 8.23208 189.242 8.23208 189.421C8.23208 189.603 8.27326 189.77 8.35562 189.92C8.43798 190.07 8.56151 190.19 8.72622 190.28C8.89452 190.366 9.10041 190.409 9.3439 190.409C9.64826 190.409 9.91682 190.344 10.1496 190.216C10.3823 190.087 10.5667 189.929 10.7028 189.743C10.8424 189.557 10.9176 189.376 10.9284 189.2L11.3527 189.678C11.3276 189.829 11.2596 189.995 11.1486 190.178C11.0376 190.361 10.889 190.536 10.7028 190.704C10.5202 190.869 10.3017 191.007 10.0475 191.118C9.79686 191.225 9.51398 191.279 9.19888 191.279C8.805 191.279 8.45946 191.202 8.16226 191.048C7.86864 190.894 7.63947 190.688 7.47476 190.43C7.31363 190.169 7.23306 189.877 7.23306 189.555C7.23306 189.243 7.29393 188.969 7.41568 188.733C7.53742 188.493 7.71288 188.294 7.94204 188.137C8.17121 187.976 8.44693 187.854 8.76919 187.772C9.09146 187.689 9.45132 187.648 9.84878 187.648H11.0036ZM14.382 186.601V191.172H13.3883V185.36H14.3283L14.382 186.601ZM14.1457 188.046L13.7321 188.029C13.7357 187.632 13.7947 187.265 13.9093 186.928C14.0239 186.588 14.185 186.293 14.3927 186.042C14.6004 185.792 14.8475 185.598 15.1339 185.462C15.424 185.322 15.7445 185.253 16.0954 185.253C16.3818 185.253 16.6396 185.292 16.8688 185.371C17.098 185.446 17.2931 185.568 17.4543 185.736C17.619 185.904 17.7443 186.123 17.8302 186.391C17.9162 186.656 17.9591 186.98 17.9591 187.363V191.172H16.9601V187.353C16.9601 187.048 16.9154 186.805 16.8258 186.622C16.7363 186.436 16.6056 186.302 16.4337 186.219C16.2619 186.133 16.0506 186.091 15.8 186.091C15.5529 186.091 15.3273 186.142 15.1232 186.246C14.9227 186.35 14.749 186.493 14.6022 186.676C14.459 186.859 14.3462 187.068 14.2638 187.304C14.185 187.537 14.1457 187.784 14.1457 188.046Z" fill="#333333"/>
<path d="M59.9438 183.351V191.172H58.9071V183.351H59.9438ZM63.2201 186.869V187.718H59.7182V186.869H63.2201ZM63.7519 183.351V184.2H59.7182V183.351H63.7519ZM67.1303 191.279C66.7257 191.279 66.3586 191.211 66.0292 191.075C65.7034 190.935 65.4223 190.74 65.1859 190.489C64.9532 190.239 64.7742 189.942 64.6488 189.598C64.5235 189.254 64.4608 188.878 64.4608 188.47V188.244C64.4608 187.772 64.5307 187.351 64.6703 186.982C64.81 186.61 64.9997 186.295 65.2397 186.037C65.4796 185.779 65.7517 185.584 66.0561 185.451C66.3604 185.319 66.6755 185.253 67.0014 185.253C67.4167 185.253 67.7748 185.324 68.0756 185.467C68.38 185.611 68.6288 185.811 68.8222 186.069C69.0155 186.323 69.1588 186.624 69.2519 186.971C69.345 187.315 69.3915 187.691 69.3915 188.099V188.545H65.0517V187.734H68.3979V187.659C68.3835 187.401 68.3298 187.15 68.2367 186.907C68.1472 186.663 68.004 186.463 67.807 186.305C67.6101 186.148 67.3415 186.069 67.0014 186.069C66.7758 186.069 66.5681 186.117 66.3783 186.214C66.1885 186.307 66.0256 186.447 65.8896 186.633C65.7535 186.819 65.6479 187.047 65.5727 187.315C65.4975 187.584 65.4599 187.893 65.4599 188.244V188.47C65.4599 188.746 65.4975 189.005 65.5727 189.249C65.6514 189.489 65.7642 189.7 65.911 189.883C66.0614 190.065 66.2423 190.208 66.4535 190.312C66.6684 190.416 66.9119 190.468 67.184 190.468C67.5349 190.468 67.8321 190.396 68.0756 190.253C68.3191 190.11 68.5321 189.918 68.7147 189.678L69.3163 190.156C69.191 190.346 69.0316 190.527 68.8383 190.699C68.6449 190.871 68.4068 191.01 68.1239 191.118C67.8446 191.225 67.5134 191.279 67.1303 191.279ZM70.5463 182.922H71.5453V190.044L71.4594 191.172H70.5463V182.922ZM75.4716 188.217V188.33C75.4716 188.753 75.4215 189.145 75.3212 189.507C75.2209 189.865 75.0741 190.176 74.8808 190.441C74.6874 190.706 74.4511 190.912 74.1718 191.059C73.8925 191.206 73.572 191.279 73.2104 191.279C72.8415 191.279 72.5175 191.216 72.2382 191.091C71.9625 190.962 71.7297 190.778 71.5399 190.538C71.3502 190.298 71.198 190.008 71.0834 189.668C70.9724 189.327 70.8954 188.944 70.8524 188.518V188.024C70.8954 187.594 70.9724 187.209 71.0834 186.869C71.198 186.529 71.3502 186.239 71.5399 185.999C71.7297 185.756 71.9625 185.571 72.2382 185.446C72.5139 185.317 72.8344 185.253 73.1996 185.253C73.5648 185.253 73.8889 185.324 74.1718 185.467C74.4547 185.607 74.691 185.808 74.8808 186.069C75.0741 186.33 75.2209 186.644 75.3212 187.009C75.4215 187.371 75.4716 187.773 75.4716 188.217ZM74.4726 188.33V188.217C74.4726 187.927 74.4457 187.655 74.392 187.401C74.3383 187.143 74.2523 186.918 74.1342 186.724C74.016 186.527 73.8603 186.373 73.6669 186.262C73.4735 186.148 73.2354 186.091 72.9525 186.091C72.7019 186.091 72.4835 186.133 72.2973 186.219C72.1147 186.305 71.9589 186.422 71.83 186.569C71.7011 186.712 71.5954 186.876 71.5131 187.063C71.4343 187.245 71.3752 187.435 71.3358 187.632V188.926C71.3931 189.177 71.4862 189.419 71.6151 189.652C71.7476 189.881 71.9231 190.069 72.1415 190.216C72.3635 190.362 72.6374 190.436 72.9633 190.436C73.2318 190.436 73.461 190.382 73.6508 190.275C73.8441 190.164 73.9999 190.011 74.1181 189.818C74.2398 189.625 74.3293 189.401 74.3866 189.147C74.4439 188.892 74.4726 188.62 74.4726 188.33Z" fill="#333333"/>
<path d="M116.386 183.351H117.391L119.953 189.727L122.509 183.351H123.519L120.339 191.172H119.555L116.386 183.351ZM116.059 183.351H116.945L117.09 188.121V191.172H116.059V183.351ZM122.955 183.351H123.841V191.172H122.81V188.121L122.955 183.351ZM128.938 190.178V187.186C128.938 186.957 128.892 186.758 128.799 186.59C128.709 186.418 128.573 186.286 128.391 186.193C128.208 186.099 127.982 186.053 127.714 186.053C127.463 186.053 127.243 186.096 127.053 186.182C126.867 186.268 126.72 186.381 126.613 186.52C126.509 186.66 126.457 186.81 126.457 186.971H125.463C125.463 186.764 125.517 186.558 125.625 186.354C125.732 186.15 125.886 185.965 126.086 185.8C126.291 185.632 126.534 185.5 126.817 185.403C127.103 185.303 127.422 185.253 127.773 185.253C128.195 185.253 128.568 185.324 128.89 185.467C129.216 185.611 129.47 185.827 129.653 186.117C129.839 186.404 129.932 186.764 129.932 187.197V189.904C129.932 190.097 129.948 190.303 129.98 190.522C130.016 190.74 130.068 190.928 130.136 191.086V191.172H129.1C129.049 191.057 129.01 190.905 128.981 190.715C128.953 190.522 128.938 190.343 128.938 190.178ZM129.11 187.648L129.121 188.346H128.117C127.834 188.346 127.581 188.37 127.359 188.416C127.137 188.459 126.951 188.525 126.801 188.615C126.65 188.704 126.536 188.817 126.457 188.953C126.378 189.086 126.339 189.242 126.339 189.421C126.339 189.603 126.38 189.77 126.462 189.92C126.545 190.07 126.668 190.19 126.833 190.28C127.001 190.366 127.207 190.409 127.451 190.409C127.755 190.409 128.024 190.344 128.256 190.216C128.489 190.087 128.673 189.929 128.81 189.743C128.949 189.557 129.024 189.376 129.035 189.2L129.459 189.678C129.434 189.829 129.366 189.995 129.255 190.178C129.144 190.361 128.996 190.536 128.81 190.704C128.627 190.869 128.409 191.007 128.154 191.118C127.904 191.225 127.621 191.279 127.306 191.279C126.912 191.279 126.566 191.202 126.269 191.048C125.975 190.894 125.746 190.688 125.582 190.43C125.42 190.169 125.34 189.877 125.34 189.555C125.34 189.243 125.401 188.969 125.522 188.733C125.644 188.493 125.82 188.294 126.049 188.137C126.278 187.976 126.554 187.854 126.876 187.772C127.198 187.689 127.558 187.648 127.956 187.648H129.11ZM132.489 186.273V191.172H131.495V185.36H132.462L132.489 186.273ZM134.304 185.328L134.299 186.252C134.216 186.234 134.138 186.223 134.062 186.219C133.991 186.212 133.909 186.209 133.815 186.209C133.586 186.209 133.384 186.244 133.208 186.316C133.033 186.388 132.884 186.488 132.763 186.617C132.641 186.746 132.544 186.9 132.473 187.079C132.405 187.254 132.36 187.448 132.338 187.659L132.059 187.82C132.059 187.469 132.093 187.14 132.161 186.832C132.233 186.524 132.342 186.252 132.489 186.015C132.636 185.775 132.822 185.589 133.047 185.457C133.277 185.321 133.549 185.253 133.864 185.253C133.935 185.253 134.018 185.262 134.111 185.279C134.204 185.294 134.268 185.31 134.304 185.328Z" fill="#333333"/>
<path d="M177.893 184.044L175.305 191.172H174.246L177.227 183.351H177.91L177.893 184.044ZM180.063 191.172L177.469 184.044L177.453 183.351H178.135L181.127 191.172H180.063ZM179.929 188.277V189.125H175.536V188.277H179.929ZM183.017 186.477V193.406H182.018V185.36H182.932L183.017 186.477ZM186.933 188.217V188.33C186.933 188.753 186.883 189.145 186.783 189.507C186.682 189.865 186.536 190.176 186.342 190.441C186.152 190.706 185.918 190.912 185.639 191.059C185.359 191.206 185.039 191.279 184.677 191.279C184.308 191.279 183.982 191.218 183.7 191.096C183.417 190.975 183.177 190.797 182.98 190.565C182.783 190.332 182.625 190.053 182.507 189.727C182.393 189.401 182.314 189.034 182.271 188.626V188.024C182.314 187.594 182.394 187.209 182.513 186.869C182.631 186.529 182.786 186.239 182.98 185.999C183.177 185.756 183.415 185.571 183.694 185.446C183.973 185.317 184.296 185.253 184.661 185.253C185.026 185.253 185.35 185.324 185.633 185.467C185.916 185.607 186.154 185.808 186.348 186.069C186.541 186.33 186.686 186.644 186.783 187.009C186.883 187.371 186.933 187.773 186.933 188.217ZM185.934 188.33V188.217C185.934 187.927 185.904 187.655 185.843 187.401C185.782 187.143 185.687 186.918 185.558 186.724C185.433 186.527 185.272 186.373 185.075 186.262C184.878 186.148 184.643 186.091 184.371 186.091C184.12 186.091 183.902 186.133 183.716 186.219C183.533 186.305 183.377 186.422 183.248 186.569C183.119 186.712 183.014 186.876 182.932 187.063C182.853 187.245 182.794 187.435 182.754 187.632V189.023C182.826 189.274 182.926 189.51 183.055 189.732C183.184 189.951 183.356 190.128 183.571 190.264C183.786 190.396 184.056 190.463 184.382 190.463C184.65 190.463 184.881 190.407 185.075 190.296C185.272 190.181 185.433 190.026 185.558 189.829C185.687 189.632 185.782 189.406 185.843 189.152C185.904 188.894 185.934 188.62 185.934 188.33ZM189.194 186.273V191.172H188.201V185.36H189.167L189.194 186.273ZM191.01 185.328L191.004 186.252C190.922 186.234 190.843 186.223 190.768 186.219C190.696 186.212 190.614 186.209 190.521 186.209C190.292 186.209 190.089 186.244 189.914 186.316C189.738 186.388 189.59 186.488 189.468 186.617C189.346 186.746 189.25 186.9 189.178 187.079C189.11 187.254 189.065 187.448 189.044 187.659L188.765 187.82C188.765 187.469 188.799 187.14 188.867 186.832C188.938 186.524 189.047 186.252 189.194 186.015C189.341 185.775 189.527 185.589 189.753 185.457C189.982 185.321 190.254 185.253 190.569 185.253C190.641 185.253 190.723 185.262 190.816 185.279C190.909 185.294 190.974 185.31 191.01 185.328Z" fill="#333333"/>
<path d="M230.851 183.351H231.856L234.418 189.727L236.974 183.351H237.984L234.804 191.172H234.02L230.851 183.351ZM230.524 183.351H231.41L231.555 188.121V191.172H230.524V183.351ZM237.42 183.351H238.306V191.172H237.275V188.121L237.42 183.351ZM243.404 190.178V187.186C243.404 186.957 243.357 186.758 243.264 186.59C243.174 186.418 243.038 186.286 242.856 186.193C242.673 186.099 242.448 186.053 242.179 186.053C241.928 186.053 241.708 186.096 241.518 186.182C241.332 186.268 241.185 186.381 241.078 186.52C240.974 186.66 240.922 186.81 240.922 186.971H239.929C239.929 186.764 239.982 186.558 240.09 186.354C240.197 186.15 240.351 185.965 240.552 185.8C240.756 185.632 240.999 185.5 241.282 185.403C241.568 185.303 241.887 185.253 242.238 185.253C242.661 185.253 243.033 185.324 243.355 185.467C243.681 185.611 243.935 185.827 244.118 186.117C244.304 186.404 244.397 186.764 244.397 187.197V189.904C244.397 190.097 244.413 190.303 244.446 190.522C244.481 190.74 244.533 190.928 244.601 191.086V191.172H243.565C243.515 191.057 243.475 190.905 243.447 190.715C243.418 190.522 243.404 190.343 243.404 190.178ZM243.575 187.648L243.586 188.346H242.582C242.299 188.346 242.047 188.37 241.825 188.416C241.602 188.459 241.416 188.525 241.266 188.615C241.116 188.704 241.001 188.817 240.922 188.953C240.843 189.086 240.804 189.242 240.804 189.421C240.804 189.603 240.845 189.77 240.928 189.92C241.01 190.07 241.133 190.19 241.298 190.28C241.466 190.366 241.672 190.409 241.916 190.409C242.22 190.409 242.489 190.344 242.721 190.216C242.954 190.087 243.139 189.929 243.275 189.743C243.414 189.557 243.49 189.376 243.5 189.2L243.925 189.678C243.9 189.829 243.831 189.995 243.72 190.178C243.609 190.361 243.461 190.536 243.275 190.704C243.092 190.869 242.874 191.007 242.619 191.118C242.369 191.225 242.086 191.279 241.771 191.279C241.377 191.279 241.031 191.202 240.734 191.048C240.441 190.894 240.211 190.688 240.047 190.43C239.886 190.169 239.805 189.877 239.805 189.555C239.805 189.243 239.866 188.969 239.988 188.733C240.109 188.493 240.285 188.294 240.514 188.137C240.743 187.976 241.019 187.854 241.341 187.772C241.663 187.689 242.023 187.648 242.421 187.648H243.575ZM247.507 190.57L249.124 185.36H250.187L247.856 192.069C247.803 192.212 247.731 192.366 247.641 192.53C247.555 192.699 247.444 192.858 247.308 193.008C247.172 193.159 247.008 193.281 246.814 193.374C246.624 193.47 246.397 193.519 246.132 193.519C246.053 193.519 245.953 193.508 245.831 193.487C245.71 193.465 245.624 193.447 245.574 193.433L245.568 192.627C245.597 192.631 245.642 192.634 245.702 192.638C245.767 192.645 245.812 192.649 245.837 192.649C246.062 192.649 246.254 192.618 246.411 192.557C246.569 192.5 246.701 192.402 246.809 192.262C246.92 192.126 247.015 191.938 247.094 191.698L247.507 190.57ZM246.32 185.36L247.829 189.872L248.087 190.919L247.373 191.284L245.235 185.36H246.32Z" fill="#333333"/>
<path d="M291.428 188.889V183.351H292.459V188.889C292.459 189.404 292.353 189.84 292.142 190.194C291.931 190.549 291.639 190.819 291.267 191.005C290.898 191.188 290.473 191.279 289.994 191.279C289.514 191.279 289.088 191.197 288.715 191.032C288.343 190.867 288.051 190.617 287.84 190.28C287.628 189.943 287.523 189.519 287.523 189.007H288.559C288.559 189.336 288.62 189.607 288.742 189.818C288.864 190.029 289.032 190.185 289.247 190.285C289.465 190.386 289.714 190.436 289.994 190.436C290.266 190.436 290.509 190.378 290.724 190.264C290.942 190.146 291.114 189.972 291.24 189.743C291.365 189.51 291.428 189.225 291.428 188.889ZM297.621 189.829V185.36H298.62V191.172H297.669L297.621 189.829ZM297.808 188.604L298.222 188.593C298.222 188.98 298.181 189.338 298.099 189.668C298.02 189.994 297.891 190.276 297.712 190.516C297.533 190.756 297.298 190.944 297.008 191.08C296.718 191.213 296.365 191.279 295.95 191.279C295.667 191.279 295.408 191.238 295.171 191.155C294.939 191.073 294.738 190.946 294.57 190.774C294.401 190.602 294.271 190.378 294.178 190.103C294.088 189.827 294.043 189.496 294.043 189.109V185.36H295.037V189.12C295.037 189.381 295.066 189.598 295.123 189.77C295.184 189.938 295.264 190.072 295.365 190.173C295.468 190.269 295.583 190.337 295.708 190.377C295.837 190.416 295.97 190.436 296.106 190.436C296.528 190.436 296.863 190.355 297.11 190.194C297.357 190.029 297.535 189.809 297.642 189.533C297.753 189.254 297.808 188.944 297.808 188.604ZM301.128 186.601V191.172H300.134V185.36H301.074L301.128 186.601ZM300.892 188.046L300.478 188.029C300.482 187.632 300.541 187.265 300.655 186.928C300.77 186.588 300.931 186.293 301.139 186.042C301.346 185.792 301.593 185.598 301.88 185.462C302.17 185.322 302.49 185.253 302.841 185.253C303.128 185.253 303.385 185.292 303.615 185.371C303.844 185.446 304.039 185.568 304.2 185.736C304.365 185.904 304.49 186.123 304.576 186.391C304.662 186.656 304.705 186.98 304.705 187.363V191.172H303.706V187.353C303.706 187.048 303.661 186.805 303.572 186.622C303.482 186.436 303.351 186.302 303.18 186.219C303.008 186.133 302.796 186.091 302.546 186.091C302.299 186.091 302.073 186.142 301.869 186.246C301.669 186.35 301.495 186.493 301.348 186.676C301.205 186.859 301.092 187.068 301.01 187.304C300.931 187.537 300.892 187.784 300.892 188.046Z" fill="#333333"/>
<path d="M348.348 188.889V183.351H349.379V188.889C349.379 189.404 349.274 189.84 349.062 190.194C348.851 190.549 348.559 190.819 348.187 191.005C347.818 191.188 347.394 191.279 346.914 191.279C346.434 191.279 346.008 191.197 345.636 191.032C345.263 190.867 344.972 190.617 344.76 190.28C344.549 189.943 344.443 189.519 344.443 189.007H345.48C345.48 189.336 345.541 189.607 345.663 189.818C345.784 190.029 345.953 190.185 346.167 190.285C346.386 190.386 346.635 190.436 346.914 190.436C347.186 190.436 347.43 190.378 347.645 190.264C347.863 190.146 348.035 189.972 348.16 189.743C348.285 189.51 348.348 189.225 348.348 188.889ZM354.541 189.829V185.36H355.54V191.172H354.589L354.541 189.829ZM354.729 188.604L355.143 188.593C355.143 188.98 355.101 189.338 355.019 189.668C354.94 189.994 354.811 190.276 354.632 190.516C354.453 190.756 354.219 190.944 353.929 191.08C353.639 191.213 353.286 191.279 352.871 191.279C352.588 191.279 352.328 191.238 352.092 191.155C351.859 191.073 351.659 190.946 351.49 190.774C351.322 190.602 351.191 190.378 351.098 190.103C351.009 189.827 350.964 189.496 350.964 189.109V185.36H351.958V189.12C351.958 189.381 351.986 189.598 352.043 189.77C352.104 189.938 352.185 190.072 352.285 190.173C352.389 190.269 352.504 190.337 352.629 190.377C352.758 190.416 352.89 190.436 353.026 190.436C353.449 190.436 353.784 190.355 354.031 190.194C354.278 190.029 354.455 189.809 354.562 189.533C354.673 189.254 354.729 188.944 354.729 188.604ZM358.134 182.922V191.172H357.135V182.922H358.134ZM361.362 190.57L362.979 185.36H364.042L361.711 192.069C361.658 192.212 361.586 192.366 361.497 192.53C361.411 192.699 361.3 192.858 361.164 193.008C361.028 193.159 360.863 193.281 360.669 193.374C360.48 193.47 360.252 193.519 359.987 193.519C359.909 193.519 359.808 193.508 359.687 193.487C359.565 193.465 359.479 193.447 359.429 193.433L359.423 192.627C359.452 192.631 359.497 192.634 359.558 192.638C359.622 192.645 359.667 192.649 359.692 192.649C359.917 192.649 360.109 192.618 360.267 192.557C360.424 192.5 360.557 192.402 360.664 192.262C360.775 192.126 360.87 191.938 360.949 191.698L361.362 190.57ZM360.175 185.36L361.685 189.872L361.942 190.919L361.228 191.284L359.09 185.36H360.175Z" fill="#333333"/>
<path d="M405.153 184.044L402.564 191.172H401.506L404.487 183.351H405.169L405.153 184.044ZM407.323 191.172L404.729 184.044L404.712 183.351H405.395L408.386 191.172H407.323ZM407.188 188.277V189.125H402.795V188.277H407.188ZM412.774 189.829V185.36H413.773V191.172H412.823L412.774 189.829ZM412.962 188.604L413.376 188.593C413.376 188.98 413.335 189.338 413.252 189.668C413.174 189.994 413.045 190.276 412.866 190.516C412.687 190.756 412.452 190.944 412.162 191.08C411.872 191.213 411.519 191.279 411.104 191.279C410.821 191.279 410.562 191.238 410.325 191.155C410.092 191.073 409.892 190.946 409.724 190.774C409.555 190.602 409.425 190.378 409.332 190.103C409.242 189.827 409.197 189.496 409.197 189.109V185.36H410.191V189.12C410.191 189.381 410.22 189.598 410.277 189.77C410.338 189.938 410.418 190.072 410.519 190.173C410.622 190.269 410.737 190.337 410.862 190.377C410.991 190.416 411.124 190.436 411.26 190.436C411.682 190.436 412.017 190.355 412.264 190.194C412.511 190.029 412.688 189.809 412.796 189.533C412.907 189.254 412.962 188.944 412.962 188.604ZM419.053 185.36H419.956V191.048C419.956 191.56 419.852 191.997 419.644 192.359C419.436 192.72 419.146 192.994 418.774 193.18C418.405 193.37 417.979 193.465 417.496 193.465C417.295 193.465 417.059 193.433 416.787 193.368C416.518 193.307 416.253 193.202 415.992 193.051C415.734 192.905 415.517 192.706 415.342 192.455L415.863 191.864C416.106 192.158 416.361 192.362 416.625 192.477C416.894 192.591 417.159 192.649 417.42 192.649C417.736 192.649 418.008 192.59 418.237 192.471C418.466 192.353 418.643 192.178 418.769 191.945C418.897 191.716 418.962 191.433 418.962 191.096V186.638L419.053 185.36ZM415.052 188.33V188.217C415.052 187.773 415.104 187.371 415.208 187.009C415.315 186.644 415.467 186.33 415.664 186.069C415.865 185.808 416.106 185.607 416.389 185.467C416.672 185.324 416.991 185.253 417.345 185.253C417.71 185.253 418.029 185.317 418.301 185.446C418.577 185.571 418.81 185.756 419 185.999C419.193 186.239 419.345 186.529 419.456 186.869C419.567 187.209 419.644 187.594 419.687 188.024V188.518C419.648 188.944 419.571 189.327 419.456 189.668C419.345 190.008 419.193 190.298 419 190.538C418.81 190.778 418.577 190.962 418.301 191.091C418.026 191.216 417.703 191.279 417.334 191.279C416.987 191.279 416.672 191.206 416.389 191.059C416.11 190.912 415.87 190.706 415.669 190.441C415.469 190.176 415.315 189.865 415.208 189.507C415.104 189.145 415.052 188.753 415.052 188.33ZM416.045 188.217V188.33C416.045 188.62 416.074 188.892 416.131 189.147C416.192 189.401 416.284 189.625 416.405 189.818C416.531 190.011 416.69 190.164 416.883 190.275C417.077 190.382 417.308 190.436 417.576 190.436C417.906 190.436 418.178 190.366 418.393 190.226C418.607 190.087 418.778 189.902 418.903 189.673C419.032 189.444 419.132 189.195 419.204 188.926V187.632C419.164 187.435 419.103 187.245 419.021 187.063C418.942 186.876 418.838 186.712 418.709 186.569C418.584 186.422 418.428 186.305 418.242 186.219C418.056 186.133 417.838 186.091 417.587 186.091C417.315 186.091 417.08 186.148 416.883 186.262C416.69 186.373 416.531 186.527 416.405 186.724C416.284 186.918 416.192 187.143 416.131 187.401C416.074 187.655 416.045 187.927 416.045 188.217Z" fill="#333333"/>
<path d="M465.139 189.195C465.139 189.012 465.11 188.851 465.053 188.712C464.999 188.568 464.903 188.439 464.763 188.325C464.627 188.21 464.437 188.101 464.194 187.997C463.954 187.893 463.649 187.788 463.28 187.68C462.894 187.566 462.545 187.439 462.233 187.299C461.922 187.156 461.655 186.993 461.433 186.81C461.211 186.628 461.041 186.418 460.923 186.182C460.804 185.945 460.745 185.675 460.745 185.371C460.745 185.066 460.808 184.785 460.933 184.528C461.059 184.27 461.238 184.046 461.47 183.856C461.707 183.663 461.988 183.512 462.314 183.405C462.64 183.298 463.003 183.244 463.404 183.244C463.991 183.244 464.489 183.357 464.897 183.582C465.309 183.804 465.622 184.096 465.837 184.458C466.052 184.816 466.159 185.199 466.159 185.607H465.128C465.128 185.313 465.065 185.054 464.94 184.828C464.815 184.599 464.625 184.42 464.371 184.291C464.117 184.159 463.794 184.092 463.404 184.092C463.035 184.092 462.731 184.148 462.491 184.259C462.251 184.37 462.072 184.52 461.954 184.71C461.839 184.9 461.782 185.117 461.782 185.36C461.782 185.525 461.816 185.675 461.884 185.811C461.956 185.944 462.065 186.067 462.212 186.182C462.362 186.296 462.552 186.402 462.781 186.499C463.014 186.595 463.291 186.688 463.613 186.778C464.057 186.903 464.441 187.043 464.763 187.197C465.085 187.351 465.35 187.525 465.558 187.718C465.769 187.908 465.925 188.124 466.025 188.368C466.129 188.608 466.181 188.88 466.181 189.184C466.181 189.503 466.116 189.791 465.987 190.049C465.859 190.307 465.674 190.527 465.434 190.71C465.194 190.892 464.906 191.034 464.57 191.134C464.237 191.231 463.864 191.279 463.452 191.279C463.091 191.279 462.734 191.229 462.383 191.129C462.036 191.028 461.719 190.878 461.433 190.677C461.15 190.477 460.923 190.23 460.751 189.936C460.582 189.639 460.498 189.295 460.498 188.905H461.529C461.529 189.174 461.581 189.404 461.685 189.598C461.789 189.788 461.931 189.945 462.11 190.07C462.292 190.196 462.498 190.289 462.727 190.35C462.96 190.407 463.202 190.436 463.452 190.436C463.814 190.436 464.12 190.386 464.371 190.285C464.621 190.185 464.811 190.042 464.94 189.856C465.073 189.669 465.139 189.449 465.139 189.195ZM469.763 191.279C469.359 191.279 468.992 191.211 468.662 191.075C468.336 190.935 468.055 190.74 467.819 190.489C467.586 190.239 467.407 189.942 467.282 189.598C467.157 189.254 467.094 188.878 467.094 188.47V188.244C467.094 187.772 467.164 187.351 467.303 186.982C467.443 186.61 467.633 186.295 467.873 186.037C468.113 185.779 468.385 185.584 468.689 185.451C468.994 185.319 469.309 185.253 469.634 185.253C470.05 185.253 470.408 185.324 470.709 185.467C471.013 185.611 471.262 185.811 471.455 186.069C471.649 186.323 471.792 186.624 471.885 186.971C471.978 187.315 472.025 187.691 472.025 188.099V188.545H467.685V187.734H471.031V187.659C471.017 187.401 470.963 187.15 470.87 186.907C470.78 186.663 470.637 186.463 470.44 186.305C470.243 186.148 469.975 186.069 469.634 186.069C469.409 186.069 469.201 186.117 469.011 186.214C468.822 186.307 468.659 186.447 468.523 186.633C468.387 186.819 468.281 187.047 468.206 187.315C468.131 187.584 468.093 187.893 468.093 188.244V188.47C468.093 188.746 468.131 189.005 468.206 189.249C468.285 189.489 468.397 189.7 468.544 189.883C468.695 190.065 468.875 190.208 469.087 190.312C469.301 190.416 469.545 190.468 469.817 190.468C470.168 190.468 470.465 190.396 470.709 190.253C470.952 190.11 471.165 189.918 471.348 189.678L471.949 190.156C471.824 190.346 471.665 190.527 471.471 190.699C471.278 190.871 471.04 191.01 470.757 191.118C470.478 191.225 470.147 191.279 469.763 191.279ZM474.178 186.477V193.406H473.179V185.36H474.092L474.178 186.477ZM478.094 188.217V188.33C478.094 188.753 478.044 189.145 477.944 189.507C477.843 189.865 477.696 190.176 477.503 190.441C477.313 190.706 477.079 190.912 476.8 191.059C476.52 191.206 476.2 191.279 475.838 191.279C475.469 191.279 475.143 191.218 474.861 191.096C474.578 190.975 474.338 190.797 474.141 190.565C473.944 190.332 473.786 190.053 473.668 189.727C473.554 189.401 473.475 189.034 473.432 188.626V188.024C473.475 187.594 473.555 187.209 473.674 186.869C473.792 186.529 473.947 186.239 474.141 185.999C474.338 185.756 474.576 185.571 474.855 185.446C475.134 185.317 475.457 185.253 475.822 185.253C476.187 185.253 476.511 185.324 476.794 185.467C477.077 185.607 477.315 185.808 477.508 186.069C477.702 186.33 477.847 186.644 477.944 187.009C478.044 187.371 478.094 187.773 478.094 188.217ZM477.095 188.33V188.217C477.095 187.927 477.064 187.655 477.004 187.401C476.943 187.143 476.848 186.918 476.719 186.724C476.594 186.527 476.432 186.373 476.236 186.262C476.039 186.148 475.804 186.091 475.532 186.091C475.281 186.091 475.063 186.133 474.877 186.219C474.694 186.305 474.538 186.422 474.409 186.569C474.28 186.712 474.175 186.876 474.092 187.063C474.014 187.245 473.955 187.435 473.915 187.632V189.023C473.987 189.274 474.087 189.51 474.216 189.732C474.345 189.951 474.517 190.128 474.732 190.264C474.946 190.396 475.217 190.463 475.543 190.463C475.811 190.463 476.042 190.407 476.236 190.296C476.432 190.181 476.594 190.026 476.719 189.829C476.848 189.632 476.943 189.406 477.004 189.152C477.064 188.894 477.095 188.62 477.095 188.33Z" fill="#333333"/>
<path d="M524.656 187.014V187.508C524.656 188.096 524.582 188.622 524.435 189.088C524.289 189.553 524.077 189.949 523.802 190.275C523.526 190.6 523.195 190.849 522.808 191.021C522.425 191.193 521.995 191.279 521.519 191.279C521.057 191.279 520.633 191.193 520.246 191.021C519.863 190.849 519.53 190.6 519.247 190.275C518.968 189.949 518.751 189.553 518.597 189.088C518.443 188.622 518.366 188.096 518.366 187.508V187.014C518.366 186.427 518.441 185.903 518.592 185.441C518.746 184.975 518.962 184.579 519.242 184.254C519.521 183.924 519.852 183.674 520.235 183.502C520.622 183.33 521.046 183.244 521.508 183.244C521.984 183.244 522.414 183.33 522.797 183.502C523.184 183.674 523.515 183.924 523.791 184.254C524.07 184.579 524.283 184.975 524.43 185.441C524.58 185.903 524.656 186.427 524.656 187.014ZM523.63 187.508V187.004C523.63 186.538 523.581 186.126 523.485 185.768C523.392 185.41 523.254 185.109 523.071 184.866C522.889 184.622 522.665 184.438 522.4 184.313C522.138 184.187 521.841 184.125 521.508 184.125C521.186 184.125 520.894 184.187 520.633 184.313C520.375 184.438 520.153 184.622 519.967 184.866C519.784 185.109 519.643 185.41 519.542 185.768C519.442 186.126 519.392 186.538 519.392 187.004V187.508C519.392 187.978 519.442 188.393 519.542 188.755C519.643 189.113 519.786 189.415 519.972 189.662C520.162 189.906 520.386 190.09 520.643 190.216C520.905 190.341 521.197 190.404 521.519 190.404C521.855 190.404 522.154 190.341 522.416 190.216C522.677 190.09 522.897 189.906 523.077 189.662C523.259 189.415 523.397 189.113 523.49 188.755C523.583 188.393 523.63 187.978 523.63 187.508ZM528.383 190.463C528.619 190.463 528.838 190.414 529.038 190.318C529.239 190.221 529.404 190.088 529.533 189.92C529.661 189.748 529.735 189.553 529.753 189.335H530.698C530.68 189.678 530.564 189.999 530.349 190.296C530.138 190.59 529.86 190.828 529.516 191.01C529.173 191.189 528.795 191.279 528.383 191.279C527.946 191.279 527.565 191.202 527.239 191.048C526.917 190.894 526.648 190.683 526.433 190.414C526.222 190.146 526.063 189.838 525.955 189.49C525.852 189.14 525.8 188.769 525.8 188.379V188.153C525.8 187.763 525.852 187.394 525.955 187.047C526.063 186.696 526.222 186.386 526.433 186.117C526.648 185.849 526.917 185.638 527.239 185.484C527.565 185.33 527.946 185.253 528.383 185.253C528.838 185.253 529.235 185.346 529.576 185.532C529.916 185.715 530.182 185.965 530.376 186.284C530.573 186.599 530.68 186.957 530.698 187.358H529.753C529.735 187.118 529.667 186.902 529.549 186.708C529.434 186.515 529.277 186.361 529.076 186.246C528.879 186.128 528.648 186.069 528.383 186.069C528.079 186.069 527.823 186.13 527.615 186.252C527.411 186.37 527.248 186.531 527.126 186.735C527.008 186.936 526.922 187.159 526.869 187.406C526.818 187.65 526.793 187.899 526.793 188.153V188.379C526.793 188.633 526.818 188.883 526.869 189.131C526.919 189.378 527.003 189.601 527.121 189.802C527.243 190.002 527.406 190.164 527.61 190.285C527.817 190.404 528.075 190.463 528.383 190.463ZM534.248 185.36V186.123H531.106V185.36H534.248ZM532.17 183.947H533.163V189.732C533.163 189.929 533.194 190.078 533.255 190.178C533.316 190.278 533.394 190.344 533.491 190.377C533.588 190.409 533.692 190.425 533.803 190.425C533.885 190.425 533.971 190.418 534.06 190.404C534.154 190.386 534.223 190.371 534.27 190.361L534.275 191.172C534.196 191.197 534.093 191.22 533.964 191.241C533.838 191.266 533.686 191.279 533.507 191.279C533.264 191.279 533.04 191.231 532.836 191.134C532.632 191.037 532.469 190.876 532.347 190.651C532.229 190.421 532.17 190.113 532.17 189.727V183.947Z" fill="#333333"/>
<path d="M580.29 183.351V191.172H579.248L575.311 185.14V191.172H574.274V183.351H575.311L579.264 189.399V183.351H580.29ZM581.713 188.33V188.207C581.713 187.788 581.774 187.399 581.896 187.041C582.017 186.68 582.193 186.366 582.422 186.101C582.651 185.833 582.929 185.625 583.254 185.478C583.58 185.328 583.945 185.253 584.35 185.253C584.758 185.253 585.125 185.328 585.451 185.478C585.781 185.625 586.06 185.833 586.289 186.101C586.522 186.366 586.699 186.68 586.821 187.041C586.943 187.399 587.003 187.788 587.003 188.207V188.33C587.003 188.749 586.943 189.138 586.821 189.496C586.699 189.854 586.522 190.167 586.289 190.436C586.06 190.701 585.782 190.908 585.457 191.059C585.134 191.206 584.769 191.279 584.361 191.279C583.953 191.279 583.586 191.206 583.26 191.059C582.934 190.908 582.655 190.701 582.422 190.436C582.193 190.167 582.017 189.854 581.896 189.496C581.774 189.138 581.713 188.749 581.713 188.33ZM582.707 188.207V188.33C582.707 188.62 582.741 188.894 582.809 189.152C582.877 189.406 582.979 189.632 583.115 189.829C583.254 190.026 583.428 190.181 583.636 190.296C583.843 190.407 584.085 190.463 584.361 190.463C584.633 190.463 584.871 190.407 585.075 190.296C585.283 190.181 585.455 190.026 585.591 189.829C585.727 189.632 585.829 189.406 585.897 189.152C585.969 188.894 586.004 188.62 586.004 188.33V188.207C586.004 187.92 585.969 187.65 585.897 187.396C585.829 187.138 585.725 186.911 585.585 186.714C585.449 186.513 585.278 186.355 585.07 186.241C584.866 186.126 584.626 186.069 584.35 186.069C584.078 186.069 583.838 186.126 583.63 186.241C583.426 186.355 583.254 186.513 583.115 186.714C582.979 186.911 582.877 187.138 582.809 187.396C582.741 187.65 582.707 187.92 582.707 188.207ZM589.931 190.275L591.521 185.36H592.536L590.446 191.172H589.78L589.931 190.275ZM588.604 185.36L590.242 190.301L590.355 191.172H589.689L587.583 185.36H588.604Z" fill="#333333"/>
<path d="M634.493 191.172H632.86L632.871 190.328H634.493C635.051 190.328 635.517 190.212 635.889 189.979C636.262 189.743 636.541 189.413 636.727 188.991C636.917 188.565 637.012 188.067 637.012 187.498V187.02C637.012 186.572 636.958 186.175 636.851 185.827C636.743 185.476 636.586 185.181 636.378 184.941C636.17 184.698 635.916 184.513 635.615 184.388C635.318 184.263 634.976 184.2 634.589 184.2H632.828V183.351H634.589C635.101 183.351 635.569 183.437 635.991 183.609C636.414 183.777 636.777 184.023 637.081 184.345C637.389 184.664 637.626 185.05 637.79 185.505C637.955 185.956 638.038 186.465 638.038 187.03V187.498C638.038 188.063 637.955 188.574 637.79 189.029C637.626 189.48 637.388 189.865 637.076 190.183C636.768 190.502 636.396 190.747 635.959 190.919C635.526 191.087 635.037 191.172 634.493 191.172ZM633.413 183.351V191.172H632.376V183.351H633.413ZM641.856 191.279C641.452 191.279 641.085 191.211 640.755 191.075C640.429 190.935 640.148 190.74 639.912 190.489C639.679 190.239 639.5 189.942 639.375 189.598C639.25 189.254 639.187 188.878 639.187 188.47V188.244C639.187 187.772 639.257 187.351 639.396 186.982C639.536 186.61 639.726 186.295 639.966 186.037C640.206 185.779 640.478 185.584 640.782 185.451C641.087 185.319 641.402 185.253 641.727 185.253C642.143 185.253 642.501 185.324 642.802 185.467C643.106 185.611 643.355 185.811 643.548 186.069C643.742 186.323 643.885 186.624 643.978 186.971C644.071 187.315 644.118 187.691 644.118 188.099V188.545H639.778V187.734H643.124V187.659C643.11 187.401 643.056 187.15 642.963 186.907C642.873 186.663 642.73 186.463 642.533 186.305C642.336 186.148 642.068 186.069 641.727 186.069C641.502 186.069 641.294 186.117 641.104 186.214C640.915 186.307 640.752 186.447 640.616 186.633C640.48 186.819 640.374 187.047 640.299 187.315C640.224 187.584 640.186 187.893 640.186 188.244V188.47C640.186 188.746 640.224 189.005 640.299 189.249C640.378 189.489 640.49 189.7 640.637 189.883C640.788 190.065 640.968 190.208 641.18 190.312C641.394 190.416 641.638 190.468 641.91 190.468C642.261 190.468 642.558 190.396 642.802 190.253C643.045 190.11 643.258 189.918 643.441 189.678L644.042 190.156C643.917 190.346 643.758 190.527 643.564 190.699C643.371 190.871 643.133 191.01 642.85 191.118C642.571 191.225 642.24 191.279 641.856 191.279ZM647.603 190.463C647.84 190.463 648.058 190.414 648.259 190.318C648.459 190.221 648.624 190.088 648.753 189.92C648.882 189.748 648.955 189.553 648.973 189.335H649.918C649.901 189.678 649.784 189.999 649.569 190.296C649.358 190.59 649.081 190.828 648.737 191.01C648.393 191.189 648.015 191.279 647.603 191.279C647.167 191.279 646.785 191.202 646.459 191.048C646.137 190.894 645.869 190.683 645.654 190.414C645.442 190.146 645.283 189.838 645.176 189.49C645.072 189.14 645.02 188.769 645.02 188.379V188.153C645.02 187.763 645.072 187.394 645.176 187.047C645.283 186.696 645.442 186.386 645.654 186.117C645.869 185.849 646.137 185.638 646.459 185.484C646.785 185.33 647.167 185.253 647.603 185.253C648.058 185.253 648.456 185.346 648.796 185.532C649.136 185.715 649.403 185.965 649.596 186.284C649.793 186.599 649.901 186.957 649.918 187.358H648.973C648.955 187.118 648.887 186.902 648.769 186.708C648.654 186.515 648.497 186.361 648.296 186.246C648.099 186.128 647.868 186.069 647.603 186.069C647.299 186.069 647.043 186.13 646.835 186.252C646.631 186.37 646.468 186.531 646.347 186.735C646.228 186.936 646.143 187.159 646.089 187.406C646.039 187.65 646.014 187.899 646.014 188.153V188.379C646.014 188.633 646.039 188.883 646.089 189.131C646.139 189.378 646.223 189.601 646.341 189.802C646.463 190.002 646.626 190.164 646.83 190.285C647.038 190.404 647.296 190.463 647.603 190.463Z" fill="#333333"/>
<path fill-rule="evenodd" clip-rule="evenodd" d="M10.1268 154.122L115.251 108.442L220.376 62.7634L282.438 35.7958C308.217 24.5941 338.262 30.9483 357.299 51.628L398.825 96.7384C417.862 117.418 447.907 123.772 473.686 112.571L535.749 85.6029L640.873 39.9239V176.961H10.1268V154.122Z" fill="url(#paint0_linear_3_132)"/>
<path d="M10.1268 154.122L115.251 108.442L220.376 62.7634L282.438 35.7958C308.217 24.5941 338.262 30.9483 357.299 51.628L398.825 96.7384C417.862 117.418 447.907 123.772 473.686 112.571L535.749 85.6029L640.873 39.9239" stroke="#826AF9" stroke-width="2" stroke-linejoin="round"/>
<path d="M10.1269 157.293C11.9096 157.293 13.538 155.969 13.538 154.122C13.538 152.274 11.9096 150.95 10.1269 150.95C8.34426 150.95 6.71582 152.274 6.71582 154.122C6.71582 155.969 8.34426 157.293 10.1269 157.293Z" fill="white" stroke="#826AF9" stroke-width="2"/>
<path d="M115.251 111.614C117.034 111.614 118.662 110.29 118.662 108.442C118.662 106.595 117.034 105.271 115.251 105.271C113.469 105.271 111.84 106.595 111.84 108.442C111.84 110.29 113.469 111.614 115.251 111.614Z" fill="white" stroke="#826AF9" stroke-width="2"/>
<path d="M220.375 65.9345C222.158 65.9345 223.787 64.6108 223.787 62.7634C223.787 60.916 222.158 59.5924 220.375 59.5924C218.593 59.5924 216.964 60.916 216.964 62.7634C216.964 64.6108 218.593 65.9345 220.375 65.9345Z" fill="white" stroke="#826AF9" stroke-width="2"/>
<path d="M309.5 33.2554C311.283 33.2554 312.911 31.9318 312.911 30.0844C312.911 28.237 311.283 26.9133 309.5 26.9133C307.717 26.9133 306.089 28.237 306.089 30.0844C306.089 31.9318 307.717 33.2554 309.5 33.2554Z" fill="white" stroke="#826AF9" stroke-width="2"/>
<path d="M446.624 120.453C448.407 120.453 450.036 119.129 450.036 117.282C450.036 115.435 448.407 114.111 446.624 114.111C444.842 114.111 443.213 115.435 443.213 117.282C443.213 119.129 444.842 120.453 446.624 120.453Z" fill="white" stroke="#826AF9" stroke-width="2"/>
<path d="M535.749 88.774C537.532 88.774 539.16 87.4503 539.16 85.6029C539.16 83.7555 537.532 82.4319 535.749 82.4319C533.966 82.4319 532.338 83.7555 532.338 85.6029C532.338 87.4503 533.966 88.774 535.749 88.774Z" fill="white" stroke="#826AF9" stroke-width="2"/>
<path d="M640.873 43.0949C642.656 43.0949 644.284 41.7713 644.284 39.9239C644.284 38.0765 642.656 36.7528 640.873 36.7528C639.09 36.7528 637.462 38.0765 637.462 39.9239C637.462 41.7713 639.09 43.0949 640.873 43.0949Z" fill="white" stroke="#826AF9" stroke-width="2"/>
<defs>
<linearGradient id="paint0_linear_3_132" x1="309.5" y1="34.0254" x2="307.5" y2="176.525" gradientUnits="userSpaceOnUse">
<stop stop-color="#826AF9" stop-opacity="0.8"/>
<stop offset="1" stop-color="#D1F7FF" stop-opacity="0.2"/>
</linearGradient>
</defs>
</svg>
